# xmcd CD database file
#
# Track frame offsets:
#	187
#	13349
#	26874
#	42662
#	54672
#	73754
#	90059
#	121342
#	136439
#	156989
#	175782
#	190754
#	213994
#
# Disc length: 3011 seconds
#
# Revision: 6
# Processed by: cddbd v1.5.2PL0 Copyright (c) Steve Scherf et al.
# Submitted via: CDex 1.51
#
DISCID=b80bc10d
DTITLE=Richie Kotzen - Mother Head's Family Reunion
DYEAR=1994
DGENRE=Rock
TTITLE0=Socialite
TTITLE1=Mother Head's Family Reunion
TTITLE2=Where Did Our Love Go
TTITLE3=Natural Thing
TTITLE4=A Love Divine
TTITLE5=Soul To Soul
TTITLE6=Reach Out I'll Be There
TTITLE7=Testify
TTITLE8=Used
TTITLE9=A Woman and A Man
TTITLE10=Livin' Easy
TTITLE11=Cover Me
TTITLE12=Wailing Wall
EXTD=YEAR: 1994
EXTT0=
EXTT1=
EXTT2=
EXTT3=
EXTT4=
EXTT5=
EXTT6=
EXTT7=
EXTT8=
EXTT9=
EXTT10=
EXTT11=
EXTT12=
PLAYORDER=
